<svg xmlns="http://www.w3.org/2000/svg" xmlns:xlink="http://www.w3.org/1999/xlink" width="75" height="75" viewBox="0 0 75 75">
  <defs>
    <clipPath id="clip-path">
      <rect id="Rectangle_9293" data-name="Rectangle 9293" width="41.45" height="50.063" fill="#fff"/>
    </clipPath>
  </defs>
  <g id="Group_15523" data-name="Group 15523" transform="translate(-725 -1310)">
    <rect id="Rectangle_9292" data-name="Rectangle 9292" width="75" height="75" rx="37.5" transform="translate(725 1310)" fill="#f20c90"/>
    <g id="Group_8197" data-name="Group 8197" transform="translate(741.773 1322.469)" clip-path="url(#clip-path)">
      <path id="Path_17333" data-name="Path 17333" d="M0,20.744A20.734,20.734,0,1,1,27.985,40.269a2.467,2.467,0,0,0-1.128.946c-1.569,2.544-3.077,5.125-4.616,7.687-.931,1.551-2.093,1.548-3.027-.005-1.524-2.533-3.014-5.088-4.574-7.6a2.784,2.784,0,0,0-1.263-1.063A20.761,20.761,0,0,1,0,20.744m20.731,24.89c.229-.351.41-.608.572-.877,1.155-1.922,2.267-3.871,3.483-5.753a3.215,3.215,0,0,1,1.5-1.241A17.854,17.854,0,0,0,17.757,3.2,17.985,17.985,0,0,0,2.975,18.974,17.787,17.787,0,0,0,13.938,37.214a6.422,6.422,0,0,1,3.644,3.193c.775,1.5,1.71,2.913,2.579,4.361.16.267.343.521.57.865" transform="translate(0 0)" fill="#fff"/>
      <path id="Path_17334" data-name="Path 17334" d="M64.539,67.029c.231.028.42.057.61.072a1.438,1.438,0,0,1,1.444,1.43A1.478,1.478,0,0,1,65.086,70c-.648.043-1.3.016-1.952.016H43.8c-.26,0-.521.008-.781,0-1.041-.041-1.736-.62-1.75-1.45-.013-.793.585-1.34,1.615-1.477.126-.017.252-.037.409-.06a21.587,21.587,0,0,1,.384-2.387,10.385,10.385,0,0,1,7.971-7.834c.454-.113.823-.2.939-.793a1.236,1.236,0,0,1,1.381-.985,1.41,1.41,0,0,1,1.374,1.032,1.224,1.224,0,0,0,.664.672c5.336,1.541,8.073,4.793,8.531,10.293m-18.155-.013H61.495c.253-3.925-3.345-7.5-7.506-7.528-4.185-.032-7.86,3.567-7.6,7.528" transform="translate(-33.212 -44.282)" fill="#fff"/>
    </g>
  </g>
</svg>
