<svg xmlns="http://www.w3.org/2000/svg" xmlns:xlink="http://www.w3.org/1999/xlink" width="75" height="75" viewBox="0 0 75 75">
  <defs>
    <clipPath id="clip-path">
      <rect id="Rectangle_9361" data-name="Rectangle 9361" width="45.405" height="45.248" fill="#fff"/>
    </clipPath>
  </defs>
  <g id="Group_15524" data-name="Group 15524" transform="translate(-725 -1635)">
    <rect id="Rectangle_9297" data-name="Rectangle 9297" width="75" height="75" rx="37.5" transform="translate(725 1635)" fill="#f20c90"/>
    <g id="Group_8269" data-name="Group 8269" transform="translate(739.799 1648.947)">
      <g id="Group_8268" data-name="Group 8268" transform="translate(-0.001 0)" clip-path="url(#clip-path)">
        <path id="Path_17678" data-name="Path 17678" d="M7.163,25.278c0-3.295,0-6.471,0-9.648,0-1.3.188-1.487,1.466-1.488,1.706,0,3.413,0,5.242,0,0-1.319.027-2.6-.025-3.882-.009-.223-.327-.462-.545-.641a3.7,3.7,0,0,1-1.245-2.75C11.792,4.45,12.9,2.546,13.95.592a1.323,1.323,0,0,1,.98-.565q7.776-.053,15.553,0a1.435,1.435,0,0,1,1.035.62,19.239,19.239,0,0,1,1.629,3.313,12.843,12.843,0,0,1,.187,2.433A3.4,3.4,0,0,1,31.9,9.847a.942.942,0,0,0-.326.652c-.032,1.173-.015,2.348-.015,3.644h4.961c1.674,0,1.757.082,1.757,1.728,0,3.091,0,6.181,0,9.407,1.316,0,2.6.044,3.88-.016a1.4,1.4,0,0,1,1.576.964,3.177,3.177,0,0,0,.355.707,8.418,8.418,0,0,1,1.212,6.15,2.951,2.951,0,0,1-1.149,1.645,2.035,2.035,0,0,0-.854,1.854c.055,2.414.025,4.83.017,7.245,0,1.236-.2,1.418-1.45,1.419q-7.379,0-14.758,0c-1.289,0-1.461-.172-1.463-1.495,0-2.533.023-5.066-.027-7.6a1.648,1.648,0,0,0-.565-1.144,3.746,3.746,0,0,1-1.508-3.052c-.2-2.363.91-4.193,1.915-6.094a1.524,1.524,0,0,1,1.154-.561c2.945-.047,5.891-.025,8.837-.025h1.011V15.95h-4.9c0,.917.006,1.846,0,2.775-.008.972-.279,1.242-1.268,1.243q-7.556.005-15.112,0c-1.03,0-1.287-.266-1.292-1.307,0-.879,0-1.759,0-2.7H8.976v9.314h.9c2.916,0,5.833.029,8.749-.018A1.473,1.473,0,0,1,20.247,26.3a2.719,2.719,0,0,0,.318.628,8.376,8.376,0,0,1,1.216,6.148,3.115,3.115,0,0,1-1.207,1.7,1.9,1.9,0,0,0-.789,1.707c.042,2.473.022,4.948.012,7.421,0,1.137-.22,1.342-1.348,1.343q-7.512,0-15.023,0c-1.07,0-1.292-.214-1.3-1.3-.011-2.562-.018-5.125.007-7.687A1.336,1.336,0,0,0,1.5,34.931,3.314,3.314,0,0,1,.029,32.06c-.218-2.389.866-4.261,1.9-6.187A1.456,1.456,0,0,1,2.994,25.3c1.348-.067,2.7-.027,4.169-.027M31.561,5.3c-1.609,0-3.106-.007-4.6,0-.6,0-1.08-.168-1.1-.85s.4-.919,1.031-.917c1.33.006,2.661,0,4.039,0-.657-1.773-.657-1.773-2.305-1.773h-12.1c-1.335,0-1.67.305-1.908,1.773,1.241,0,2.477.009,3.712,0,.638-.006,1.245.057,1.257.868s-.571.908-1.223.9c-1.464-.013-2.929,0-4.478,0,0,.606.044,1.133-.01,1.65-.1.947.54,1.382,1.206,1.756.69.388,1.06-.259,1.5-.6a5.1,5.1,0,0,0,.517-.6c.546-.594,1.007-.585,1.559.021,1.583,1.74,1.661,1.74,3.313-.015.571-.606.964-.6,1.543.029,1.6,1.731,1.649,1.731,3.313-.043.551-.587,1-.577,1.56.036a4.147,4.147,0,0,0,.785.825c.34.207.93.485,1.134.34a3.422,3.422,0,0,0,1.223-1.446A6.081,6.081,0,0,0,31.561,5.3M5.66,43.446c0-1.472,0-2.908,0-4.344.006-1.267.187-1.45,1.414-1.451q3.884,0,7.767,0c1.232,0,1.413.182,1.418,1.447.007,1.436,0,2.872,0,4.321h1.77c0-2.413.007-4.763-.016-7.113a.753.753,0,0,0-.356-.5c-.616-.377-1.257-.711-1.713-.964A7.746,7.746,0,0,1,13.4,35.8a7.354,7.354,0,0,1-2.437-.9,7.143,7.143,0,0,1-2.44.9,8.313,8.313,0,0,1-2.614-.994c-.3.825-1.821.472-1.992,1.587A19.328,19.328,0,0,0,3.888,39.3v4.143Zm28.779-8.8c-1.645,1.658-3.273,1.617-4.734.06l-2.239,1.318v7.412h1.708c0-1.54-.012-3.036,0-4.531.011-1.031.24-1.252,1.254-1.254q3.928-.008,7.856,0c1.306,0,1.482.17,1.488,1.467.006,1.435,0,2.87,0,4.332h1.77c0-2.409.006-4.786-.013-7.162a.651.651,0,0,0-.294-.452c-.644-.385-1.31-.735-1.984-1.106-1.96,1.56-2.738,1.559-4.816-.082M17.418,18.168c0-1.535,0-3,0-4.467,0-1.084.249-1.324,1.36-1.325q3.973,0,7.945,0c1.032,0,1.292.265,1.3,1.3,0,1.49,0,2.98,0,4.466h1.749v-7.37L27.7,9.561a7.658,7.658,0,0,1-2.536.965,7.307,7.307,0,0,1-2.439-.908,7.175,7.175,0,0,1-2.438.909,8.064,8.064,0,0,1-2.567-.961L15.69,10.75v7.418ZM1.854,30.608c0,.3-.018.536,0,.765.053.57-.064,1.268.223,1.685C3,34.4,3.887,34.384,5.006,33.175c.16-.172.292-.372.462-.533a.816.816,0,0,1,1.249-.013c.191.181.342.4.523.6,1.085,1.158,1.579,1.148,2.633-.048.078-.088.148-.183.225-.272.65-.755,1.075-.757,1.718-.022.231.265.476.519.722.77.6.611,1.156.5,1.758-.034,1.536-1.37,1.558-1.371,3.036-.019a1.3,1.3,0,0,0,1.8.142c1.339-.8.892-1.982.906-3.134Zm23.514.006c0,.518,0,.981,0,1.444a2.043,2.043,0,0,0,1.449,1.949c.752.293,1.116-.3,1.565-.694a5.1,5.1,0,0,0,.413-.458c.634-.7,1.01-.7,1.654.022.177.2.348.4.538.583.875.85,1.248.846,2.143-.012,1.337-1.281,1.337-1.281,2.7.018.826.786,1.192.814,1.955.161.5-.429,1.024-1.2,1.509-1.18.55.025,1.036.815,1.612,1.173.353.219.951.474,1.213.322a3.414,3.414,0,0,0,1.409-1.4,5.2,5.2,0,0,0,.051-1.928Zm-5.947-1.827c-.635-1.747-.635-1.747-2.286-1.747H4.59c-1.441,0-1.738.257-2.007,1.747Zm6.538-.037H42.993a8.568,8.568,0,0,0-.639-1.247,1.09,1.09,0,0,0-.723-.445q-7.156-.039-14.312,0a1.091,1.091,0,0,0-.723.445,8.572,8.572,0,0,0-.639,1.246m-15.927,10.7H7.481v3.988h2.551Zm1.883,3.976h2.515V39.438H11.914Zm21.632-3.952H30.985v3.941h2.561Zm4.389,0h-2.5v3.983h2.5ZM21.777,14.205H19.225v3.96h2.553Zm1.89,3.958h2.539V14.173H23.667Z" transform="translate(0 0)" fill="#fff"/>
        <path id="Path_17679" data-name="Path 17679" d="M124.891,19.243c.24.334.693.692.661,1a1.239,1.239,0,0,1-.836.836c-.232.042-.777-.467-.8-.763-.028-.332.37-.7.583-1.053l.394-.017" transform="translate(-102.015 -15.843)" fill="#fff"/>
      </g>
    </g>
  </g>
</svg>
