<svg xmlns="http://www.w3.org/2000/svg" xmlns:xlink="http://www.w3.org/1999/xlink" width="75" height="75" viewBox="0 0 75 75">
  <defs>
    <clipPath id="clip-path">
      <rect id="Rectangle_9299" data-name="Rectangle 9299" width="43.669" height="38.041" fill="#fff"/>
    </clipPath>
  </defs>
  <g id="Group_15522" data-name="Group 15522" transform="translate(-357 -1597)">
    <rect id="Rectangle_9296" data-name="Rectangle 9296" width="75" height="75" rx="37.5" transform="translate(357 1597)" fill="#f20c90"/>
    <g id="Group_8206" data-name="Group 8206" transform="translate(372.666 1615.48)">
      <g id="Group_8205" data-name="Group 8205" transform="translate(-0.001 0)" clip-path="url(#clip-path)">
        <path id="Path_17343" data-name="Path 17343" d="M13.026,106.921c3.788-4.49,13.817-4.5,17.609-.01a5.414,5.414,0,0,1,3.779-3.05c2.684-.442,5.406-.7,7.594,1.5a5.5,5.5,0,0,1,1.655,3.983c.011,2.986.006,5.971,0,8.956a2.592,2.592,0,0,1-2.824,2.885c-2.217.028-4.434.017-6.651,0-.525,0-.837.05-1.026.683a2.691,2.691,0,0,1-2.569,2.016c-.935.058-1.875.036-2.812.037q-6.993,0-13.986,0c-1.922,0-2.7-.565-3.42-2.32a.991.991,0,0,0-.77-.39c-2.188-.031-4.377-.013-6.566-.019C.885,121.188,0,120.292,0,118.126q0-4.308,0-8.615a5.709,5.709,0,0,1,5.361-5.847c.565-.047,1.136-.017,1.7-.041a5.994,5.994,0,0,1,5.959,3.3m8.766,14.448c2.7,0,5.4-.008,8.1.006.569,0,.917-.111.906-.791-.038-2.416.052-4.837-.079-7.247a7.329,7.329,0,0,0-5.932-6.891,19.7,19.7,0,0,0-4.913-.179,7.491,7.491,0,0,0-6.914,6.9c-.139,2.409-.041,4.831-.1,7.246-.018.767.274.975,1,.966,2.643-.032,5.287-.012,7.93-.013M10.306,118.6c0-.412,0-.773,0-1.133a25.862,25.862,0,0,1,.615-7.168,3.222,3.222,0,0,0-3.134-4.1,17.539,17.539,0,0,0-2.042,0,3.18,3.18,0,0,0-3.187,3.368c-.009,2.781,0,5.563,0,8.344,0,.217.032.435.052.689Zm23.062-.028H41.1c0-3.215.048-6.363-.021-9.508a2.994,2.994,0,0,0-2.728-2.81,15.67,15.67,0,0,0-2.548-.047,3.228,3.228,0,0,0-3.047,4.167,22.557,22.557,0,0,1,.61,6.4c0,.588,0,1.177,0,1.8" transform="translate(0 -85.887)" fill="#fff"/>
        <path id="Path_17344" data-name="Path 17344" d="M99.388,7.4A7.411,7.411,0,1,1,91.963,0a7.395,7.395,0,0,1,7.425,7.4M87.13,7.44a4.85,4.85,0,1,0,4.843-4.875A4.838,4.838,0,0,0,87.13,7.44" transform="translate(-70.144 -0.001)" fill="#fff"/>
        <path id="Path_17345" data-name="Path 17345" d="M17.268,32.055a4.676,4.676,0,1,1-4.679,4.629,4.65,4.65,0,0,1,4.679-4.629m-.032,6.792a2.117,2.117,0,1,0-2.089-2.122,2.1,2.1,0,0,0,2.089,2.122" transform="translate(-10.441 -26.588)" fill="#fff"/>
        <path id="Path_17346" data-name="Path 17346" d="M193.315,32.055a4.676,4.676,0,1,1-4.691,4.617,4.652,4.652,0,0,1,4.691-4.617m2.1,4.692a2.115,2.115,0,1,0-2.11,2.1,2.092,2.092,0,0,0,2.11-2.1" transform="translate(-156.453 -26.588)" fill="#fff"/>
      </g>
    </g>
  </g>
</svg>
