<svg xmlns="http://www.w3.org/2000/svg" width="75" height="75" viewBox="0 0 75 75">
  <g id="Group_15525" data-name="Group 15525" transform="translate(-1093 -1597)">
    <rect id="Rectangle_9298" data-name="Rectangle 9298" width="75" height="75" rx="37.5" transform="translate(1093 1597)" fill="#f20c90"/>
    <g id="Group_8248" data-name="Group 8248" transform="translate(1112.23 1611.385)">
      <path id="Path_17657" data-name="Path 17657" d="M5740.253-2291.213a16.119,16.119,0,0,1-4.641-7.282c-1.738-5.516.12-10.856,4.851-13.542a10.342,10.342,0,0,1,11.073.134,10.369,10.369,0,0,1,5.263,9.755,15.207,15.207,0,0,1-4.731,10.431,7.567,7.567,0,0,1-.628.493c2.112.84,3.811,2.079,6,2.437,3.91.64,6.584,4.12,6.7,8.4.061,2.3.023,4.6.008,6.893-.008,1.1-.443,1.505-1.539,1.505q-16.706,0-33.412,0c-1.07,0-1.529-.4-1.534-1.425-.012-2.487-.077-4.978.047-7.459a8.461,8.461,0,0,1,7.524-8.127,9.08,9.08,0,0,0,2.241-.827C5738.378-2290.238,5739.257-2290.714,5740.253-2291.213Zm-2.952-10.141c.477,1.412.829,2.712,1.351,3.939a12.365,12.365,0,0,0,3.75,4.8,1.846,1.846,0,0,1,.682,2.3,1.054,1.054,0,0,0,.171,1.22c.515.726.989,1.481,1.485,2.22.368.548.744,1.09,1.17,1.714,1.015-1.519,1.964-2.924,2.886-4.347a.707.707,0,0,0-.009-.573,1.992,1.992,0,0,1,.542-2.482,23,23,0,0,0,1.915-1.859,13.421,13.421,0,0,0,3.078-6.958,6.634,6.634,0,0,1-6.006-2.38,6.606,6.606,0,0,1-5.81,2.414C5740.862-2301.407,5739.214-2301.354,5737.3-2301.354Zm7.343,20.41c-.974.484-1.814.9-2.656,1.319-1.114.55-1.541.439-2.229-.59-1.289-1.928-2.59-3.849-3.848-5.8a.826.826,0,0,0-1.05-.432c-2.313.586-4.077,1.964-4.472,4.287a63.423,63.423,0,0,0-.419,7.686h14.673Zm17.036,6.48c.014-.279.035-.493.034-.707-.017-2,.033-4-.075-5.993a5.968,5.968,0,0,0-4.649-5.276.9.9,0,0,0-1.123.447c-1.25,1.953-2.555,3.872-3.845,5.8-.667,1-1.1,1.109-2.162.588l-2.7-1.322v6.464Zm-24.182-29.319c1.915,0,3.777-.044,5.636.011a3.74,3.74,0,0,0,3.96-3.441c.038-.954.53-1.425,1.223-1.434s1.125.455,1.267,1.4a3.715,3.715,0,0,0,4.693,3.37,8.476,8.476,0,0,0-8.2-7.211A8.515,8.515,0,0,0,5737.5-2303.782Zm3.115,15.113-2.666,1.345,3.508,5.246,2.659-1.342Zm9.74,6.59,3.5-5.261-2.677-1.32-3.494,5.251Z" transform="translate(-5727.631 2313.578)" fill="#fff"/>
      <path id="Path_17658" data-name="Path 17658" d="M5881.484-2099.8c-.755,0-1.51.011-2.264,0a1.208,1.208,0,0,1-1.335-1.2,1.2,1.2,0,0,1,1.31-1.222q2.3-.023,4.608,0a1.2,1.2,0,0,1,1.335,1.2,1.2,1.2,0,0,1-1.31,1.223C5883.048-2099.784,5882.266-2099.8,5881.484-2099.8Z" transform="translate(-5853.511 2136.517)" fill="#fff"/>
    </g>
  </g>
</svg>
