<svg xmlns="http://www.w3.org/2000/svg" xmlns:xlink="http://www.w3.org/1999/xlink" width="252.591" height="77.423" viewBox="0 0 252.591 77.423">
  <defs>
    <filter id="Path_17127" x="160.758" y="36.729" width="33.235" height="28.247" filterUnits="userSpaceOnUse">
      <feOffset dy="3" input="SourceAlpha"/>
      <feGaussianBlur stdDeviation="3" result="blur"/>
      <feFlood flood-opacity="0.122"/>
      <feComposite operator="in" in2="blur"/>
      <feComposite in="SourceGraphic"/>
    </filter>
    <filter id="Path_17128" x="40.186" y="45.454" width="34.28" height="31.969" filterUnits="userSpaceOnUse">
      <feOffset dy="3" input="SourceAlpha"/>
      <feGaussianBlur stdDeviation="3" result="blur-2"/>
      <feFlood flood-opacity="0.122"/>
      <feComposite operator="in" in2="blur-2"/>
      <feComposite in="SourceGraphic"/>
    </filter>
    <filter id="Path_17130" x="130.377" y="5.984" width="33.061" height="29.735" filterUnits="userSpaceOnUse">
      <feOffset dy="3" input="SourceAlpha"/>
      <feGaussianBlur stdDeviation="3" result="blur-3"/>
      <feFlood flood-opacity="0.122"/>
      <feComposite operator="in" in2="blur-3"/>
      <feComposite in="SourceGraphic"/>
    </filter>
    <filter id="Path_17132" x="0" y="44.702" width="32.189" height="31.421" filterUnits="userSpaceOnUse">
      <feOffset dy="3" input="SourceAlpha"/>
      <feGaussianBlur stdDeviation="3" result="blur-4"/>
      <feFlood flood-opacity="0.122"/>
      <feComposite operator="in" in2="blur-4"/>
      <feComposite in="SourceGraphic"/>
    </filter>
    <filter id="Path_17133" x="98.244" y="36.754" width="30.844" height="32.688" filterUnits="userSpaceOnUse">
      <feOffset dy="3" input="SourceAlpha"/>
      <feGaussianBlur stdDeviation="3" result="blur-5"/>
      <feFlood flood-opacity="0.122"/>
      <feComposite operator="in" in2="blur-5"/>
      <feComposite in="SourceGraphic"/>
    </filter>
    <filter id="Path_17135" x="187.002" y="0" width="29.575" height="33.217" filterUnits="userSpaceOnUse">
      <feOffset dy="3" input="SourceAlpha"/>
      <feGaussianBlur stdDeviation="3" result="blur-6"/>
      <feFlood flood-opacity="0.122"/>
      <feComposite operator="in" in2="blur-6"/>
      <feComposite in="SourceGraphic"/>
    </filter>
    <filter id="Path_17136" x="225.48" y="0.9" width="27.111" height="33.159" filterUnits="userSpaceOnUse">
      <feOffset dy="3" input="SourceAlpha"/>
      <feGaussianBlur stdDeviation="3" result="blur-7"/>
      <feFlood flood-opacity="0.122"/>
      <feComposite operator="in" in2="blur-7"/>
      <feComposite in="SourceGraphic"/>
    </filter>
  </defs>
  <g id="Group_8103" data-name="Group 8103" transform="matrix(0.966, -0.259, 0.259, 0.966, -698.61, -375.863)">
    <g transform="matrix(0.97, 0.26, -0.26, 0.97, 577.53, 543.87)" filter="url(#Path_17127)">
      <path id="Path_17127-2" data-name="Path 17127" d="M125.752,282.734c-.014,2.865-.9,3.513-3.657,2.784-2.523-.668-5.071-1.24-7.6-1.9-1.117-.292-2.3-.609-2.622-1.95-.3-1.279.7-1.928,1.445-2.682l.868-.071.472.033a45.011,45.011,0,0,0,8.075,2.3,6.2,6.2,0,0,1,3.013,1.481" transform="matrix(0.97, -0.26, 0.26, 0.97, -10.44, -194.14)" fill="#ff6e0c"/>
    </g>
    <g transform="matrix(0.97, 0.26, -0.26, 0.97, 577.53, 543.87)" filter="url(#Path_17128)">
      <path id="Path_17128-2" data-name="Path 17128" d="M232.6,42.861c-3.548.027-9.276-3.714-10.592-6.91-.56-1.362-.725-2.886.848-3.586,1.449-.644,2.177.441,2.939,1.686,1.432,2.341,3.83,3.56,6.353,4.481.281.1.615.056.9.149,1.154.378,2.686.654,2.534,2.175-.161,1.614-1.513,2.165-2.984,2.006" transform="matrix(0.97, -0.26, 0.26, 0.97, -173.2, 81.35)" fill="#f20c90"/>
    </g>
    <g transform="matrix(0.97, 0.26, -0.26, 0.97, 577.53, 543.87)" filter="url(#Path_17130)">
      <path id="Path_17130-2" data-name="Path 17130" d="M433.624,8.586a2.21,2.21,0,0,1-2.392-1.594,1.776,1.776,0,0,1,1.043-2.3c2.916-1.563,5.866-3.075,8.874-4.453a2.186,2.186,0,0,1,2.988,1.014c.754,1.379-.334,1.806-1.214,2.477-2.841,2.165-6.189,3.278-9.3,4.855" transform="matrix(0.97, -0.26, 0.26, 0.97, -277.03, 127)" fill="#50c1d5"/>
    </g>
    <g transform="matrix(0.97, 0.26, -0.26, 0.97, 577.53, 543.87)" filter="url(#Path_17132)">
      <path id="Path_17132-2" data-name="Path 17132" d="M138.917,14.624l7-6.138.384-.4.027-.028.444-.441.016-.017.517-.376a.692.692,0,0,0,.386-.157c1.082.133,2.357-.314,2.844,1.308.463,1.546-.523,2.3-1.434,3.108-2,1.769-4.036,3.49-6.056,5.232-.82.708-1.552,1.51-2.84.811a2.406,2.406,0,0,1-1.288-2.9" transform="matrix(0.97, -0.26, 0.26, 0.97, -126.94, 82.87)" fill="#df0e80"/>
    </g>
    <g transform="matrix(0.97, 0.26, -0.26, 0.97, 577.53, 543.87)" filter="url(#Path_17133)">
      <path id="Path_17133-2" data-name="Path 17133" d="M349.988,44.243c.6-.016,1.1.608,1.6,1.19,1.925,2.261,3.3,4.924,5.349,7.126a2.58,2.58,0,0,1-.262,3.734c-1.358,1.144-2.333.072-3.073-.923-1.924-2.583-3.815-5.194-5.591-7.878a2.162,2.162,0,0,1,1.977-3.25" transform="matrix(0.97, -0.26, 0.26, 0.97, -240.04, 92.58)" fill="#f78e14"/>
    </g>
    <g transform="matrix(0.97, 0.26, -0.26, 0.97, 577.53, 543.87)" filter="url(#Path_17135)">
      <path id="Path_17135-2" data-name="Path 17135" d="M561.161,27.645a2.158,2.158,0,0,1-1.7,2.241,2.027,2.027,0,0,1-2.369-1.174c-1.343-3.071-2.655-6.156-4.052-9.2a1.866,1.866,0,0,1,.77-2.568c.917-.668,2.211-.708,2.648.139,1.713,3.33,3.19,6.782,4.568,9.81a1.551,1.551,0,0,1,.135.754" transform="matrix(0.97, -0.26, 0.26, 0.97, -342.22, 135.36)" fill="#df0e80"/>
    </g>
    <g transform="matrix(0.97, 0.26, -0.26, 0.97, 577.53, 543.87)" filter="url(#Path_17136)">
      <path id="Path_17136-2" data-name="Path 17136" d="M632.651,41.5c.109-1.65-.022-3.143,1.673-3.227,1.523-.075,2.307,1.019,2.545,2.485.443,2.731.933,5.455,1.332,8.193.225,1.543.087,3.105-1.808,3.454-1.784.329-2.13-1.074-2.354-2.431-.488-2.962-.971-5.924-1.388-8.474" transform="matrix(0.97, -0.26, 0.26, 0.97, -386.52, 135.14)" fill="#f57a3a"/>
    </g>
  </g>
</svg>
