<svg xmlns="http://www.w3.org/2000/svg" xmlns:xlink="http://www.w3.org/1999/xlink" width="75" height="75" viewBox="0 0 75 75">
  <defs>
    <clipPath id="clip-path">
      <rect id="Rectangle_9295" data-name="Rectangle 9295" width="49.015" height="48.81" fill="#fff"/>
    </clipPath>
  </defs>
  <g id="Group_15526" data-name="Group 15526" transform="translate(-1093 -1272)">
    <rect id="Rectangle_9294" data-name="Rectangle 9294" width="75" height="75" rx="37.5" transform="translate(1093 1272)" fill="#f20c90"/>
    <g id="Group_8200" data-name="Group 8200" transform="translate(1105.992 1285.094)">
      <g id="Group_8199" data-name="Group 8199" transform="translate(0 0.001)" clip-path="url(#clip-path)">
        <path id="Path_17335" data-name="Path 17335" d="M49.014,24.289A25.4,25.4,0,0,1,28.421,48.468C15.052,50.789,2.554,40.99.342,28.365-1.962,15.212,7.65,2.561,20.4.35a26.6,26.6,0,0,1,11.953.811c1.333.378,1.42.565,1.236,1.96A5.746,5.746,0,0,0,38.851,9.5c.939.067,1.346.394,1.41,1.366A5.7,5.7,0,0,0,46.119,16.2c1.444-.018,1.581.008,1.849,1.433.415,2.206.7,4.436,1.046,6.656M34.9,25.457c-.064.266-.138.506-.178.751a10.469,10.469,0,0,1-20.177,1.729c-.162-.434-.315-.652-.822-.726a4.86,4.86,0,0,1-3.555-2.447c-1.1-1.8-2.863-1.774-3.972.042a4.981,4.981,0,0,1-3.386,2.4c-.232.048-.462.106-.687.158,1.751,12.06,13.327,21.157,25.415,19.314,12.45-1.9,19.318-13.015,19.248-21.3A2.643,2.643,0,0,0,44.3,26.845a4.088,4.088,0,0,1-7.356.022,2.466,2.466,0,0,0-2.047-1.41m-21.265-.036.289-.27c0-.283,0-.567,0-.85a10.481,10.481,0,0,1,20.821-1.616c.05.291.268.739.48.786a5.786,5.786,0,0,1,3.71,2.889,1.978,1.978,0,0,0,3.374,0A5.52,5.52,0,0,1,46.988,23.4l-.761-5.241c-4.269-.319-6.74-2.368-7.756-6.2a1.294,1.294,0,0,0-.826-.694A7.493,7.493,0,0,1,31.832,5.27,22.694,22.694,0,0,1,31.566,2.9C22.909.608,15.183,2.188,8.7,8.5A21.923,21.923,0,0,0,1.907,25.326a2.587,2.587,0,0,0,2.561-1.4,4.143,4.143,0,0,1,7.489,0c.32.621,1.105,1,1.676,1.494m10.776-9.6a8.584,8.584,0,1,0,8.583,8.609,8.623,8.623,0,0,0-8.583-8.609" transform="translate(0 0)" fill="#fff"/>
        <path id="Path_17336" data-name="Path 17336" d="M75.587,166.794a14.416,14.416,0,0,1-12.167-6.718,2.334,2.334,0,0,1-.3-1.311c.008-.2.475-.574.662-.535a2.206,2.206,0,0,1,1.067.614,31.756,31.756,0,0,0,3.3,3.515,12.161,12.161,0,0,0,15.447-.541,2.212,2.212,0,0,1,1.149-.539.952.952,0,0,1,.73.6,1.392,1.392,0,0,1-.339,1.069,13.558,13.558,0,0,1-7.4,3.612c-.75.118-1.511.169-2.147.237" transform="translate(-51.078 -128.05)" fill="#fff"/>
        <path id="Path_17337" data-name="Path 17337" d="M185.337,159.189c-.64.438-1.017.894-1.377.881-.318-.012-.617-.547-.925-.851.32-.323.6-.837.971-.909.29-.057.688.429,1.33.879" transform="translate(-148.125 -128.112)" fill="#fff"/>
        <path id="Path_17338" data-name="Path 17338" d="M114.065,32.984a1.118,1.118,0,0,1,.435.174,27.435,27.435,0,0,1,2.179,2.223,1.067,1.067,0,0,1-.12,1.052,1.2,1.2,0,0,1-1.133.128,15.386,15.386,0,0,1-2.148-2.121.924.924,0,0,1,.787-1.455" transform="translate(-91.52 -26.693)" fill="#fff"/>
        <path id="Path_17339" data-name="Path 17339" d="M36.87,84.331a3.925,3.925,0,0,1-.418.728c-.586.619-1.189,1.223-1.8,1.813a.944.944,0,1,1-1.326-1.337,22.5,22.5,0,0,1,1.9-1.845,1.216,1.216,0,0,1,1.017-.11c.262.095.418.481.63.751" transform="translate(-26.677 -67.589)" fill="#fff"/>
        <path id="Path_17340" data-name="Path 17340" d="M201.576,106.758a3.086,3.086,0,0,1-.671-.35,17.564,17.564,0,0,1-1.917-1.959,1.354,1.354,0,0,1,0-1.232c.311-.51.878-.451,1.308-.045a22.542,22.542,0,0,1,1.918,1.963,1.206,1.206,0,0,1,.1,1.016c-.1.261-.485.414-.736.608" transform="translate(-160.915 -83.234)" fill="#fff"/>
        <path id="Path_17341" data-name="Path 17341" d="M65.16,54.566c-.316,0-.7.113-.933-.026-.359-.215-.847-.6-.846-.916s.488-.808.844-.9a3.909,3.909,0,0,1,1.877-.006c.386.1.671.592,1,.908a5.881,5.881,0,0,1-1.009.92c-.238.137-.618.025-.935.025v-.006" transform="translate(-51.293 -42.574)" fill="#fff"/>
        <path id="Path_17342" data-name="Path 17342" d="M159.942,64.852c-.221,0-.443,0-.665,0-.664.006-1.149-.28-1.14-.974.009-.635.464-.926,1.091-.927.538,0,1.076-.009,1.614,0,.629.014,1.063.331,1.046.969s-.466.926-1.093.927h-.854" transform="translate(-127.976 -50.943)" fill="#fff"/>
      </g>
    </g>
  </g>
</svg>
