<svg xmlns="http://www.w3.org/2000/svg" xmlns:xlink="http://www.w3.org/1999/xlink" width="75" height="75" viewBox="0 0 75 75">
  <defs>
    <clipPath id="clip-path">
      <rect id="Rectangle_9291" data-name="Rectangle 9291" width="40.96" height="41" fill="#fff"/>
    </clipPath>
  </defs>
  <g id="Group_15521" data-name="Group 15521" transform="translate(-357 -1272)">
    <rect id="Rectangle_9290" data-name="Rectangle 9290" width="75" height="75" rx="37.5" transform="translate(357 1272)" fill="#f20c90"/>
    <g id="Group_8195" data-name="Group 8195" transform="translate(374.02 1289)">
      <g id="Group_8194" data-name="Group 8194" transform="translate(0 0)" clip-path="url(#clip-path)">
        <path id="Path_17331" data-name="Path 17331" d="M9.047,150.018a9.138,9.138,0,0,1,4.111-1.889A8.1,8.1,0,0,1,20,150.024a3.3,3.3,0,0,0,2.454.876c1.464-.063,2.936.042,4.4-.031a4.017,4.017,0,0,1,4.374,2.506c1.185-1.262,2.3-2.462,3.433-3.651a3.479,3.479,0,0,1,3.389-1.165,3.57,3.57,0,0,1,2.148,5.734c-1.478,2.054-3.012,4.069-4.548,6.08a23.614,23.614,0,0,1-2.247,2.694,7.906,7.906,0,0,1-5.657,2.213c-4.587.014-9.175.076-13.759-.036A25.561,25.561,0,0,1,9.3,164.4a1.392,1.392,0,0,0-1.084.112A6.013,6.013,0,0,1,6,165.251c-1.512.112-3.038.04-4.558.031C.427,165.277,0,164.844,0,163.806q-.007-6.92,0-13.84c0-1.071.422-1.478,1.512-1.483,1.307-.005,2.615.039,3.92-.012a4,4,0,0,1,3.612,1.546m11.659,12.87c2.32,0,4.641.009,6.961,0a5.746,5.746,0,0,0,4.741-2.236c1.99-2.57,3.928-5.18,5.853-7.8a1.473,1.473,0,0,0,.218-1.1c-.254-.98-1.31-1.173-2.065-.382q-2.54,2.663-5.029,5.374a4,4,0,0,1-3.12,1.345c-2.88-.021-5.761-.005-8.642-.007-1.029,0-1.549-.4-1.555-1.186s.514-1.207,1.531-1.208c2.614,0,5.228,0,7.842,0,.969,0,1.551-.481,1.527-1.235-.023-.725-.585-1.165-1.52-1.167-1.841-.006-3.682-.042-5.521.012a4.392,4.392,0,0,1-3.192-1.206,6.608,6.608,0,0,0-1.287-.936c-2.878-1.519-5.519-.631-7.579,1.359a1.008,1.008,0,0,0-.178.66c-.012,2.747,0,5.495-.02,8.242,0,.454.129.722.562.8a31.071,31.071,0,0,0,3.915.648c2.182.108,4.373.029,6.56.029m-18.274-.006c1.274,0,2.493.034,3.709-.013a1.112,1.112,0,0,0,1.124-1.211q.026-4.791,0-9.582A1.086,1.086,0,0,0,6.189,150.9c-1.24-.055-2.484-.016-3.758-.016Z" transform="translate(0 -124.313)" fill="#fff"/>
        <path id="Path_17332" data-name="Path 17332" d="M97.16,10.946A10.787,10.787,0,1,1,86.617,0,10.833,10.833,0,0,1,97.16,10.946m-8.394-1.3C88.432,7,88.344,4.409,86.357,2.226c-1.93,2.225-2.087,4.8-2.351,7.416Zm-.07,2.5H83.982c.344,2.614.4,5.233,2.327,7.289,1.413-1.12,2.317-3.968,2.387-7.289m2.6-2.516H94.61c-.3-2.755-2.524-5.732-4.477-6.221l1.158,6.221m-1.173,8.8c2.377-1.049,4.473-3.978,4.448-6.321H91.3l-1.183,6.321M82.637,3.358a7.807,7.807,0,0,0-4.461,6.288h3.265l1.2-6.288m-4.574,8.759a8.486,8.486,0,0,0,4.587,6.351l-1.209-6.351Z" transform="translate(-63.486 0)" fill="#fff"/>
      </g>
    </g>
  </g>
</svg>
